<svg width="74" height="74" viewBox="0 0 74 74" fill="none" xmlns="http://www.w3.org/2000/svg">
<circle cx="37" cy="37" r="36.5" stroke="#DEB374"/>
<path d="M26.3509 28.6126C26.4509 27.2926 26.6909 26.1626 27.0709 25.2226C27.4309 24.2826 27.9209 23.5726 28.5409 23.0926C28.9809 22.7526 29.5409 22.4926 30.2209 22.3126C30.8809 22.1326 31.5709 22.0426 32.2909 22.0426C33.5109 22.0426 34.7009 22.2326 35.8609 22.6126C37.0209 22.9926 38.4909 23.5826 40.2709 24.3826L42.2509 25.2226C42.6309 25.3626 42.8709 25.4326 42.9709 25.4326C43.3709 25.2126 43.8009 25.0326 44.2609 24.8926C44.7009 24.7526 45.1109 24.6826 45.4909 24.6826C45.9109 24.6826 46.2509 24.7626 46.5109 24.9226C46.7709 25.0626 46.9009 25.2826 46.9009 25.5826C46.9009 25.8826 46.7609 26.1126 46.4809 26.2726C46.2009 26.4326 45.7909 26.5126 45.2509 26.5126C44.5509 26.5126 43.7909 26.3326 42.9709 25.9726C42.2109 26.1726 41.4609 26.4426 40.7209 26.7826C40.5409 26.8426 40.3409 26.9226 40.1209 27.0226C39.8809 27.1226 39.6109 27.2226 39.3109 27.3226C41.2909 27.5226 43.0209 28.0726 44.5009 28.9726C45.9609 29.8726 47.0909 31.1026 47.8909 32.6626C48.6909 34.2226 49.0909 36.0426 49.0909 38.1226C49.0909 40.3226 48.6109 42.2726 47.6509 43.9726C46.6909 45.6726 45.3509 46.9926 43.6309 47.9326C41.9109 48.8726 39.9509 49.3426 37.7509 49.3426C35.4909 49.3426 33.5109 48.9126 31.8109 48.0526C30.1109 47.1926 28.7909 45.9426 27.8509 44.3026C26.9109 42.6826 26.4409 40.7426 26.4409 38.4826C26.4409 36.3226 26.9009 34.4026 27.8209 32.7226C28.7409 31.0426 30.0309 29.7226 31.6909 28.7626C33.3509 27.8226 35.2509 27.3226 37.3909 27.2626C37.8509 27.2026 38.3009 27.1026 38.7409 26.9626C39.1609 26.8226 39.5609 26.6726 39.9409 26.5126C40.7409 26.1926 41.4009 25.9626 41.9209 25.8226L40.7509 25.7926C39.0309 25.7326 37.5709 25.7026 36.3709 25.7026C34.2909 25.7026 32.5909 25.8426 31.2709 26.1226C30.1509 26.3626 29.2709 26.6726 28.6309 27.0526C27.9909 27.4326 27.4209 28.0026 26.9209 28.7626L26.3509 28.6126ZM42.7909 38.2426C42.7909 36.1626 42.5609 34.3326 42.1009 32.7526C41.6409 31.1726 41.0209 29.9526 40.2409 29.0926C39.4609 28.2326 38.6009 27.8026 37.6609 27.8026C36.6809 27.8026 35.8209 28.2426 35.0809 29.1226C34.3209 30.0226 33.7409 31.2726 33.3409 32.8726C32.9409 34.4726 32.7409 36.3026 32.7409 38.3626C32.7409 40.4426 32.9709 42.2726 33.4309 43.8526C33.8909 45.4326 34.5109 46.6526 35.2909 47.5126C36.0709 48.3726 36.9309 48.8026 37.8709 48.8026C38.8509 48.8026 39.7209 48.3526 40.4809 47.4526C41.2209 46.5726 41.7909 45.3326 42.1909 43.7326C42.5909 42.1326 42.7909 40.3026 42.7909 38.2426Z" fill="#DEB374"/>
</svg>
