<svg width="82" height="83" viewBox="0 0 82 83" fill="none" xmlns="http://www.w3.org/2000/svg">
<circle cx="41" cy="41.5" r="40.5" stroke="#DEB374"/>
<path d="M29.004 32.554C29.1173 31.058 29.3893 29.7773 29.82 28.712C30.228 27.6467 30.7833 26.842 31.486 26.298C31.9847 25.9127 32.6193 25.618 33.39 25.414C34.138 25.21 34.92 25.108 35.736 25.108C37.1187 25.108 38.4673 25.3233 39.782 25.754C41.0967 26.1847 42.7627 26.8533 44.78 27.76L47.024 28.712C47.4547 28.8707 47.7267 28.95 47.84 28.95C48.2933 28.7007 48.7807 28.4967 49.302 28.338C49.8007 28.1793 50.2653 28.1 50.696 28.1C51.172 28.1 51.5573 28.1907 51.852 28.372C52.1467 28.5307 52.294 28.78 52.294 29.12C52.294 29.46 52.1353 29.7207 51.818 29.902C51.5007 30.0833 51.036 30.174 50.424 30.174C49.6307 30.174 48.7693 29.97 47.84 29.562C46.9787 29.7887 46.1287 30.0947 45.29 30.48C45.086 30.548 44.8593 30.6387 44.61 30.752C44.338 30.8653 44.032 30.9787 43.692 31.092C45.936 31.3187 47.8967 31.942 49.574 32.962C51.2287 33.982 52.5093 35.376 53.416 37.144C54.3227 38.912 54.776 40.9747 54.776 43.332C54.776 45.8253 54.232 48.0353 53.144 49.962C52.056 51.8887 50.5373 53.3847 48.588 54.45C46.6387 55.5153 44.4173 56.048 41.924 56.048C39.3627 56.048 37.1187 55.5607 35.192 54.586C33.2653 53.6113 31.7693 52.1947 30.704 50.336C29.6387 48.5 29.106 46.3013 29.106 43.74C29.106 41.292 29.6273 39.116 30.67 37.212C31.7127 35.308 33.1747 33.812 35.056 32.724C36.9373 31.6587 39.0907 31.092 41.516 31.024C42.0373 30.956 42.5473 30.8427 43.046 30.684C43.522 30.5253 43.9753 30.3553 44.406 30.174C45.3127 29.8113 46.0607 29.5507 46.65 29.392L45.324 29.358C43.3747 29.29 41.72 29.256 40.36 29.256C38.0027 29.256 36.076 29.4147 34.58 29.732C33.3107 30.004 32.3133 30.3553 31.588 30.786C30.8627 31.2167 30.2167 31.8627 29.65 32.724L29.004 32.554ZM47.636 43.468C47.636 41.1107 47.3753 39.0367 46.854 37.246C46.3327 35.4553 45.63 34.0727 44.746 33.098C43.862 32.1233 42.8873 31.636 41.822 31.636C40.7113 31.636 39.7367 32.1347 38.898 33.132C38.0367 34.152 37.3793 35.5687 36.926 37.382C36.4727 39.1953 36.246 41.2693 36.246 43.604C36.246 45.9613 36.5067 48.0353 37.028 49.826C37.5493 51.6167 38.252 52.9993 39.136 53.974C40.02 54.9487 40.9947 55.436 42.06 55.436C43.1707 55.436 44.1567 54.926 45.018 53.906C45.8567 52.9087 46.5027 51.5033 46.956 49.69C47.4093 47.8767 47.636 45.8027 47.636 43.468Z" fill="#DEB374"/>
</svg>
