<svg width="86" height="86" viewBox="0 0 86 86" fill="none" xmlns="http://www.w3.org/2000/svg">
<circle cx="43" cy="43" r="42.5" stroke="#DEB374"/>
<path d="M29.9307 33.3387C30.0507 31.7547 30.3387 30.3987 30.7947 29.2707C31.2267 28.1427 31.8147 27.2907 32.5587 26.7147C33.0867 26.3067 33.7587 25.9947 34.5747 25.7787C35.3667 25.5627 36.1947 25.4547 37.0587 25.4547C38.5227 25.4547 39.9507 25.6827 41.3427 26.1387C42.7347 26.5947 44.4987 27.3027 46.6347 28.2627L49.0107 29.2707C49.4667 29.4387 49.7547 29.5227 49.8747 29.5227C50.3547 29.2587 50.8707 29.0427 51.4227 28.8747C51.9507 28.7067 52.4427 28.6227 52.8987 28.6227C53.4027 28.6227 53.8107 28.7187 54.1227 28.9107C54.4347 29.0787 54.5907 29.3427 54.5907 29.7027C54.5907 30.0627 54.4227 30.3387 54.0867 30.5307C53.7507 30.7227 53.2587 30.8187 52.6107 30.8187C51.7707 30.8187 50.8587 30.6027 49.8747 30.1707C48.9627 30.4107 48.0627 30.7347 47.1747 31.1427C46.9587 31.2147 46.7187 31.3107 46.4547 31.4307C46.1667 31.5507 45.8427 31.6707 45.4827 31.7907C47.8587 32.0307 49.9347 32.6907 51.7107 33.7707C53.4627 34.8507 54.8187 36.3267 55.7787 38.1987C56.7387 40.0707 57.2187 42.2547 57.2187 44.7507C57.2186 47.3907 56.6426 49.7307 55.4906 51.7707C54.3386 53.8107 52.7306 55.3947 50.6666 56.5227C48.6026 57.6507 46.2506 58.2147 43.6106 58.2147C40.8986 58.2147 38.5226 57.6987 36.4826 56.6667C34.4426 55.6347 32.8586 54.1347 31.7306 52.1667C30.6026 50.2227 30.0386 47.8947 30.0386 45.1827C30.0387 42.5907 30.5906 40.2867 31.6946 38.2707C32.7986 36.2547 34.3466 34.6707 36.3386 33.5187C38.3306 32.3907 40.6106 31.7907 43.1787 31.7187C43.7307 31.6467 44.2707 31.5267 44.7987 31.3587C45.3027 31.1907 45.7827 31.0107 46.2387 30.8187C47.1987 30.4347 47.9907 30.1587 48.6147 29.9907L47.2107 29.9547C45.1467 29.8827 43.3947 29.8467 41.9547 29.8467C39.4587 29.8467 37.4187 30.0147 35.8346 30.3507C34.4906 30.6387 33.4346 31.0107 32.6666 31.4667C31.8986 31.9227 31.2146 32.6067 30.6146 33.5187L29.9307 33.3387ZM49.6586 44.8947C49.6587 42.3987 49.3827 40.2027 48.8306 38.3067C48.2787 36.4107 47.5347 34.9467 46.5987 33.9147C45.6627 32.8827 44.6307 32.3667 43.5027 32.3667C42.3267 32.3667 41.2947 32.8947 40.4067 33.9507C39.4947 35.0307 38.7987 36.5307 38.3186 38.4507C37.8386 40.3707 37.5986 42.5667 37.5986 45.0387C37.5986 47.5347 37.8746 49.7307 38.4266 51.6267C38.9786 53.5227 39.7226 54.9867 40.6586 56.0187C41.5946 57.0507 42.6266 57.5667 43.7546 57.5667C44.9306 57.5667 45.9746 57.0267 46.8866 55.9467C47.7746 54.8907 48.4586 53.4027 48.9386 51.4827C49.4186 49.5627 49.6586 47.3667 49.6586 44.8947Z" fill="#DEB374"/>
</svg>
