<svg width="90" height="91" viewBox="0 0 90 91" fill="none" xmlns="http://www.w3.org/2000/svg">
<circle cx="45" cy="45.5" r="44.5" stroke="#DEB374"/>
<path d="M30.9374 35.2669C31.064 33.5949 31.368 32.1635 31.8494 30.9729C32.3054 29.7822 32.926 28.8829 33.7114 28.2749C34.2687 27.8442 34.978 27.5149 35.8394 27.2869C36.6754 27.0589 37.5494 26.9449 38.4614 26.9449C40.0067 26.9449 41.514 27.1855 42.9834 27.6669C44.4527 28.1482 46.3147 28.8955 48.5694 29.9089L51.0774 30.9729C51.5587 31.1502 51.8627 31.2389 51.9894 31.2389C52.496 30.9602 53.0407 30.7322 53.6234 30.5549C54.1807 30.3775 54.7 30.2889 55.1814 30.2889C55.7134 30.2889 56.144 30.3902 56.4734 30.5929C56.8027 30.7702 56.9674 31.0489 56.9674 31.4289C56.9674 31.8089 56.79 32.1002 56.4354 32.3029C56.0807 32.5055 55.5614 32.6069 54.8774 32.6069C53.9907 32.6069 53.028 32.3789 51.9894 31.9229C51.0267 32.1762 50.0767 32.5182 49.1394 32.9489C48.9114 33.0249 48.658 33.1262 48.3794 33.2529C48.0754 33.3795 47.7334 33.5062 47.3534 33.6329C49.8614 33.8862 52.0527 34.5829 53.9274 35.7229C55.7767 36.8629 57.208 38.4209 58.2214 40.3969C59.2347 42.3729 59.7414 44.6782 59.7414 47.3129C59.7414 50.0995 59.1334 52.5695 57.9174 54.7229C56.7014 56.8762 55.004 58.5482 52.8254 59.7389C50.6467 60.9295 48.164 61.5249 45.3774 61.5249C42.5147 61.5249 40.0067 60.9802 37.8534 59.8909C35.7 58.8015 34.028 57.2182 32.8374 55.1409C31.6467 53.0889 31.0514 50.6315 31.0514 47.7689C31.0514 45.0329 31.634 42.6009 32.7994 40.4729C33.9647 38.3449 35.5987 36.6729 37.7014 35.4569C39.804 34.2662 42.2107 33.6329 44.9214 33.5569C45.504 33.4809 46.074 33.3542 46.6314 33.1769C47.1634 32.9995 47.67 32.8095 48.1514 32.6069C49.1647 32.2015 50.0007 31.9102 50.6594 31.7329L49.1774 31.6949C46.9987 31.6189 45.1494 31.5809 43.6294 31.5809C40.9947 31.5809 38.8414 31.7582 37.1694 32.1129C35.7507 32.4169 34.636 32.8095 33.8254 33.2909C33.0147 33.7722 32.2927 34.4942 31.6594 35.4569L30.9374 35.2669ZM51.7614 47.4649C51.7614 44.8302 51.47 42.5122 50.8874 40.5109C50.3047 38.5095 49.5194 36.9642 48.5314 35.8749C47.5434 34.7855 46.454 34.2409 45.2634 34.2409C44.022 34.2409 42.9327 34.7982 41.9954 35.9129C41.0327 37.0529 40.298 38.6362 39.7914 40.6629C39.2847 42.6895 39.0314 45.0075 39.0314 47.6169C39.0314 50.2515 39.3227 52.5695 39.9054 54.5709C40.488 56.5722 41.2734 58.1175 42.2614 59.2069C43.2494 60.2962 44.3387 60.8409 45.5294 60.8409C46.7707 60.8409 47.8727 60.2709 48.8354 59.1309C49.7727 58.0162 50.4947 56.4455 51.0014 54.4189C51.508 52.3922 51.7614 50.0742 51.7614 47.4649Z" fill="#DEB374"/>
</svg>
