<svg width="86" height="86" viewBox="0 0 86 86" fill="none" xmlns="http://www.w3.org/2000/svg">
<circle cx="43" cy="43" r="42.5" stroke="#AEAEAE"/>
<path d="M29.334 33.0887C29.454 31.5047 29.742 30.1487 30.198 29.0207C30.63 27.8927 31.218 27.0407 31.962 26.4647C32.49 26.0567 33.162 25.7447 33.978 25.5287C34.77 25.3127 35.598 25.2047 36.462 25.2047C37.926 25.2047 39.354 25.4327 40.746 25.8887C42.138 26.3447 43.902 27.0527 46.038 28.0127L48.414 29.0207C48.87 29.1887 49.158 29.2727 49.278 29.2727C49.758 29.0087 50.274 28.7927 50.826 28.6247C51.354 28.4567 51.846 28.3727 52.302 28.3727C52.806 28.3727 53.214 28.4687 53.526 28.6607C53.838 28.8287 53.994 29.0927 53.994 29.4527C53.994 29.8127 53.826 30.0887 53.49 30.2807C53.154 30.4727 52.662 30.5687 52.014 30.5687C51.174 30.5687 50.262 30.3527 49.278 29.9207C48.366 30.1607 47.466 30.4847 46.578 30.8927C46.362 30.9647 46.122 31.0607 45.858 31.1807C45.57 31.3007 45.246 31.4207 44.886 31.5407C47.262 31.7807 49.338 32.4407 51.114 33.5207C52.866 34.6007 54.222 36.0767 55.182 37.9487C56.142 39.8207 56.622 42.0047 56.622 44.5007C56.622 47.1407 56.046 49.4807 54.894 51.5207C53.742 53.5607 52.134 55.1447 50.07 56.2727C48.006 57.4007 45.654 57.9647 43.014 57.9647C40.302 57.9647 37.926 57.4487 35.886 56.4167C33.846 55.3847 32.262 53.8847 31.134 51.9167C30.006 49.9727 29.442 47.6447 29.442 44.9327C29.442 42.3407 29.994 40.0367 31.098 38.0207C32.202 36.0047 33.75 34.4207 35.742 33.2687C37.734 32.1407 40.014 31.5407 42.582 31.4687C43.134 31.3967 43.674 31.2767 44.202 31.1087C44.706 30.9407 45.186 30.7607 45.642 30.5687C46.602 30.1847 47.394 29.9087 48.018 29.7407L46.614 29.7047C44.55 29.6327 42.798 29.5967 41.358 29.5967C38.862 29.5967 36.822 29.7647 35.238 30.1007C33.894 30.3887 32.838 30.7607 32.07 31.2167C31.302 31.6727 30.618 32.3567 30.018 33.2687L29.334 33.0887ZM49.062 44.6447C49.062 42.1487 48.786 39.9527 48.234 38.0567C47.682 36.1607 46.938 34.6967 46.002 33.6647C45.066 32.6327 44.034 32.1167 42.906 32.1167C41.73 32.1167 40.698 32.6447 39.81 33.7007C38.898 34.7807 38.202 36.2807 37.722 38.2007C37.242 40.1207 37.002 42.3167 37.002 44.7887C37.002 47.2847 37.278 49.4807 37.83 51.3767C38.382 53.2727 39.126 54.7367 40.062 55.7687C40.998 56.8007 42.03 57.3167 43.158 57.3167C44.334 57.3167 45.378 56.7767 46.29 55.6967C47.178 54.6407 47.862 53.1527 48.342 51.2327C48.822 49.3127 49.062 47.1167 49.062 44.6447Z" fill="white"/>
</svg>
