<svg width="90" height="91" viewBox="0 0 90 91" fill="none" xmlns="http://www.w3.org/2000/svg">
<circle cx="45" cy="45.5" r="44.5" stroke="#AEAEAE"/>
<path d="M30.951 34.7161C31.0777 33.0441 31.3817 31.6127 31.863 30.4221C32.319 29.2314 32.9397 28.3321 33.725 27.7241C34.2824 27.2934 34.9917 26.9641 35.853 26.7361C36.689 26.5081 37.563 26.3941 38.475 26.3941C40.0204 26.3941 41.5277 26.6348 42.997 27.1161C44.4664 27.5974 46.3284 28.3448 48.583 29.3581L51.0911 30.4221C51.5724 30.5994 51.8764 30.6881 52.003 30.6881C52.5097 30.4094 53.0544 30.1814 53.637 30.0041C54.1944 29.8268 54.7137 29.7381 55.1951 29.7381C55.7271 29.7381 56.1577 29.8394 56.487 30.0421C56.8164 30.2194 56.9811 30.4981 56.981 30.8781C56.981 31.2581 56.8037 31.5494 56.449 31.7521C56.0944 31.9548 55.575 32.0561 54.891 32.0561C54.0044 32.0561 53.0417 31.8281 52.003 31.3721C51.0404 31.6254 50.0904 31.9674 49.153 32.3981C48.925 32.4741 48.6717 32.5754 48.393 32.7021C48.089 32.8288 47.747 32.9554 47.367 33.0821C49.875 33.3354 52.0664 34.0321 53.941 35.1721C55.7904 36.3121 57.2217 37.8701 58.235 39.8461C59.2484 41.8221 59.755 44.1274 59.755 46.7621C59.755 49.5488 59.147 52.0188 57.931 54.1721C56.715 56.3254 55.0177 57.9974 52.839 59.1881C50.6604 60.3788 48.1777 60.9741 45.391 60.9741C42.5284 60.9741 40.0204 60.4294 37.867 59.3401C35.7137 58.2508 34.0417 56.6674 32.851 54.5901C31.6604 52.5381 31.065 50.0808 31.065 47.2181C31.065 44.4821 31.6477 42.0501 32.813 39.9221C33.9784 37.7941 35.6124 36.1221 37.715 34.9061C39.8177 33.7154 42.2244 33.0821 44.935 33.0061C45.5177 32.9301 46.0877 32.8034 46.645 32.6261C47.177 32.4488 47.6837 32.2588 48.165 32.0561C49.1784 31.6508 50.0144 31.3594 50.673 31.1821L49.191 31.1441C47.0124 31.0681 45.163 31.0301 43.643 31.0301C41.0084 31.0301 38.855 31.2074 37.183 31.5621C35.7644 31.8661 34.6497 32.2588 33.839 32.7401C33.0284 33.2214 32.3064 33.9434 31.673 34.9061L30.951 34.7161ZM51.775 46.9141C51.775 44.2794 51.4837 41.9614 50.901 39.9601C50.3184 37.9588 49.533 36.4134 48.545 35.3241C47.557 34.2348 46.4677 33.6901 45.277 33.6901C44.0357 33.6901 42.9464 34.2474 42.009 35.3621C41.0464 36.5021 40.3117 38.0854 39.805 40.1121C39.2984 42.1388 39.045 44.4568 39.045 47.0661C39.045 49.7008 39.3364 52.0188 39.919 54.0201C40.5017 56.0214 41.287 57.5668 42.275 58.6561C43.263 59.7454 44.3524 60.2901 45.543 60.2901C46.7844 60.2901 47.8864 59.7201 48.849 58.5801C49.7864 57.4654 50.5084 55.8948 51.015 53.8681C51.5217 51.8414 51.775 49.5234 51.775 46.9141Z" fill="white"/>
</svg>
