<svg width="82" height="82" viewBox="0 0 82 82" fill="none" xmlns="http://www.w3.org/2000/svg">
<circle cx="41" cy="41" r="40.5" stroke="#AEAEAE"/>
<path d="M27.7159 31.9583C27.8292 30.4623 28.1012 29.1816 28.5319 28.1163C28.9399 27.051 29.4952 26.2463 30.1979 25.7023C30.6966 25.317 31.3312 25.0223 32.1019 24.8183C32.8499 24.6143 33.6319 24.5123 34.4479 24.5123C35.8306 24.5123 37.1792 24.7276 38.4939 25.1583C39.8086 25.589 41.4746 26.2576 43.4919 27.1643L45.7359 28.1163C46.1666 28.275 46.4386 28.3543 46.5519 28.3543C47.0052 28.105 47.4926 27.901 48.0139 27.7423C48.5126 27.5836 48.9773 27.5043 49.4079 27.5043C49.8839 27.5043 50.2693 27.595 50.5639 27.7763C50.8586 27.935 51.0059 28.1843 51.0059 28.5243C51.0059 28.8643 50.8473 29.125 50.5299 29.3063C50.2126 29.4876 49.7479 29.5783 49.1359 29.5783C48.3426 29.5783 47.4812 29.3743 46.5519 28.9663C45.6906 29.193 44.8406 29.499 44.0019 29.8843C43.7979 29.9523 43.5713 30.043 43.3219 30.1563C43.0499 30.2696 42.7439 30.383 42.4039 30.4963C44.6479 30.723 46.6086 31.3463 48.2859 32.3663C49.9406 33.3863 51.2212 34.7803 52.1279 36.5483C53.0346 38.3163 53.4879 40.379 53.4879 42.7363C53.4879 45.2296 52.9439 47.4396 51.8559 49.3663C50.7679 51.293 49.2492 52.789 47.2999 53.8543C45.3506 54.9196 43.1292 55.4523 40.6359 55.4523C38.0746 55.4523 35.8306 54.965 33.9039 53.9903C31.9772 53.0156 30.4812 51.599 29.4159 49.7403C28.3506 47.9043 27.8179 45.7056 27.8179 43.1443C27.8179 40.6963 28.3392 38.5203 29.3819 36.6163C30.4246 34.7123 31.8866 33.2163 33.7679 32.1283C35.6492 31.063 37.8026 30.4963 40.2279 30.4283C40.7492 30.3603 41.2592 30.247 41.7579 30.0883C42.2339 29.9296 42.6872 29.7596 43.1179 29.5783C44.0246 29.2156 44.7726 28.955 45.3619 28.7963L44.0359 28.7623C42.0866 28.6943 40.4319 28.6603 39.0719 28.6603C36.7146 28.6603 34.7879 28.819 33.2919 29.1363C32.0226 29.4083 31.0252 29.7596 30.2999 30.1903C29.5746 30.621 28.9286 31.267 28.3619 32.1283L27.7159 31.9583ZM46.3479 42.8723C46.3479 40.515 46.0872 38.441 45.5659 36.6503C45.0446 34.8596 44.3419 33.477 43.4579 32.5023C42.5739 31.5276 41.5992 31.0403 40.5339 31.0403C39.4232 31.0403 38.4486 31.539 37.6099 32.5363C36.7486 33.5563 36.0912 34.973 35.6379 36.7863C35.1846 38.5996 34.9579 40.6736 34.9579 43.0083C34.9579 45.3656 35.2186 47.4396 35.7399 49.2303C36.2612 51.021 36.9639 52.4036 37.8479 53.3783C38.7319 54.353 39.7066 54.8403 40.7719 54.8403C41.8826 54.8403 42.8686 54.3303 43.7299 53.3103C44.5686 52.313 45.2146 50.9076 45.6679 49.0943C46.1212 47.281 46.3479 45.207 46.3479 42.8723Z" fill="white"/>
</svg>
