<svg width="52" height="53" viewBox="0 0 52 53" fill="none" xmlns="http://www.w3.org/2000/svg">
<circle cx="26" cy="26.5" r="25.5" stroke="#3E3E3E"/>
<path d="M32.4365 16.8213H18.6509C16.8595 16.8213 15.4072 18.2735 15.4072 20.065V33.8505C15.4072 35.642 16.8595 37.0942 18.6509 37.0942H32.4365C34.2279 37.0942 35.6801 35.642 35.6801 33.8505V20.065C35.6801 18.2735 34.2279 16.8213 32.4365 16.8213Z" stroke="#3E3E3E"/>
<path d="M25.5402 23.3045C23.5281 23.3045 21.8911 24.9415 21.8911 26.9537C21.8911 28.9658 23.5281 30.6028 25.5402 30.6028C27.5523 30.6028 29.1893 28.9658 29.1893 26.9537C29.1893 24.9415 27.5523 23.3045 25.5402 23.3045ZM25.5438 22.3945C28.2807 22.3945 30.1052 24.6752 30.1052 26.9559C30.1052 29.2366 28.2807 31.5173 25.5438 31.5173C22.807 31.5173 20.9824 29.2366 20.9824 26.9559C20.9824 24.6752 22.807 22.3945 25.5438 22.3945Z" fill="#3E3E3E"/>
<path d="M31.6215 21.6814C32.0693 21.6814 32.4324 21.3183 32.4324 20.8705C32.4324 20.4226 32.0693 20.0596 31.6215 20.0596C31.1736 20.0596 30.8105 20.4226 30.8105 20.8705C30.8105 21.3183 31.1736 21.6814 31.6215 21.6814Z" stroke="#3E3E3E"/>
</svg>
