<svg width="62" height="63" viewBox="0 0 62 63" fill="none" xmlns="http://www.w3.org/2000/svg">
<circle cx="31" cy="31.5" r="30.5" stroke="#AEAEAE"/>
<path d="M38.6737 19.96H22.2371C20.1011 19.96 18.3696 21.6915 18.3696 23.8274V40.2641C18.3696 42.4 20.1011 44.1315 22.2371 44.1315H38.6737C40.8097 44.1315 42.5412 42.4 42.5412 40.2641V23.8274C42.5412 21.6915 40.8097 19.96 38.6737 19.96Z" stroke="#AEAEAE"/>
<path d="M30.4514 27.6905C28.0523 27.6905 26.1005 29.6423 26.1005 32.0414C26.1005 34.4404 28.0523 36.3922 30.4514 36.3922C32.8505 36.3922 34.8023 34.4404 34.8023 32.0414C34.8023 29.6423 32.8505 27.6905 30.4514 27.6905ZM30.4557 26.6055C33.7188 26.6055 35.8943 29.3248 35.8943 32.0441C35.8943 34.7634 33.7188 37.4827 30.4557 37.4827C27.1925 37.4827 25.0171 34.7634 25.0171 32.0441C25.0171 29.3248 27.1925 26.6055 30.4557 26.6055Z" fill="#AEAEAE"/>
<path d="M37.7022 25.754C38.2362 25.754 38.6691 25.3212 38.6691 24.7872C38.6691 24.2532 38.2362 23.8203 37.7022 23.8203C37.1682 23.8203 36.7354 24.2532 36.7354 24.7872C36.7354 25.3212 37.1682 25.754 37.7022 25.754Z" stroke="#AEAEAE"/>
</svg>
