<svg width="52" height="53" viewBox="0 0 52 53" fill="none" xmlns="http://www.w3.org/2000/svg">
<circle cx="26" cy="26.5" r="25.5" stroke="#AEAEAE"/>
<path d="M34.5103 17.9955L15.8071 25.7495C15.8071 25.7495 14.4387 26.2057 13.984 26.6617L13.9814 26.6643C13.5292 27.1177 13.5281 27.1188 14.4401 27.574C15.3538 28.03 19.4576 29.3986 19.4576 29.3986L32.2296 21.188L23.1068 30.767L25.6451 32.9427L29.4927 36.2407C29.4927 36.2407 30.8917 37.5308 31.7734 37.1529C32.2365 36.9545 32.5322 36.6371 32.6857 36.2408C32.8392 35.8444 35.8787 19.8197 35.8787 19.8197C35.8787 19.8197 36.2436 18.36 35.8787 17.9951C35.5138 17.6302 34.5103 17.9955 34.5103 17.9955Z" stroke="#AEAEAE"/>
</svg>
