<svg width="57" height="57" viewBox="0 0 57 57" fill="none" xmlns="http://www.w3.org/2000/svg">
<circle cx="28.5" cy="28.5" r="28" stroke="#AEAEAE"/>
<path d="M37.8282 19.1782L17.3267 27.6777C17.3267 27.6777 15.8267 28.1777 15.3282 28.6776L15.3254 28.6804C14.8297 29.1775 14.8285 29.1787 15.8282 29.6776C16.8297 30.1775 21.3282 31.6776 21.3282 31.6776L35.3282 22.6776L25.3282 33.1776L28.1105 35.5625L32.3282 39.1776C32.3282 39.1776 33.8617 40.5918 34.8282 40.1776C35.3358 39.9601 35.6599 39.6122 35.8282 39.1777C35.9965 38.7433 39.3282 21.1777 39.3282 21.1777C39.3282 21.1777 39.7282 19.5776 39.3282 19.1776C38.9282 18.7776 37.8282 19.1782 37.8282 19.1782Z" stroke="#AEAEAE"/>
</svg>
