<svg width="57" height="57" viewBox="0 0 57 57" fill="none" xmlns="http://www.w3.org/2000/svg">
<circle cx="28.5" cy="28.5" r="28" stroke="#AEAEAE"/>
<path d="M35.5553 17.8906H20.4442C18.4805 17.8906 16.8887 19.4825 16.8887 21.4462V36.5573C16.8887 38.521 18.4805 40.1129 20.4442 40.1129H35.5553C37.519 40.1129 39.1109 38.521 39.1109 36.5573V21.4462C39.1109 19.4825 37.519 17.8906 35.5553 17.8906Z" stroke="#AEAEAE"/>
<path d="M27.996 24.9975C25.7904 24.9975 23.996 26.7919 23.996 28.9975C23.996 31.2031 25.7904 32.9975 27.996 32.9975C30.2016 32.9975 31.996 31.2031 31.996 28.9975C31.996 26.7919 30.2016 24.9975 27.996 24.9975ZM28 24C31 24 33 26.5 33 29C33 31.5 31 34 28 34C25 34 23 31.5 23 29C23 26.5 25 24 28 24Z" fill="#AEAEAE"/>
<path d="M34.6623 23.2172C35.1532 23.2172 35.5512 22.8193 35.5512 22.3283C35.5512 21.8374 35.1532 21.4395 34.6623 21.4395C34.1714 21.4395 33.7734 21.8374 33.7734 22.3283C33.7734 22.8193 34.1714 23.2172 34.6623 23.2172Z" stroke="#AEAEAE"/>
</svg>
