<svg width="63" height="63" viewBox="0 0 63 63" fill="none" xmlns="http://www.w3.org/2000/svg">
<circle cx="31.9473" cy="31.5" r="30.5" stroke="#AEAEAE"/>
<path d="M42.0938 21.3608L19.7939 30.6059C19.7939 30.6059 18.1624 31.1498 17.6201 31.6935L17.6171 31.6966C17.0779 32.2373 17.0766 32.2385 18.164 32.7812C19.2534 33.325 24.1465 34.9567 24.1465 34.9567L39.3745 25.1672L28.4973 36.5883L31.5238 39.1824L36.1114 43.1146C36.1114 43.1146 37.7794 44.6528 38.8307 44.2023C39.3828 43.9657 39.7353 43.5873 39.9184 43.1147C40.1014 42.6422 43.7254 23.5358 43.7254 23.5358C43.7254 23.5358 44.1605 21.7953 43.7254 21.3602C43.2903 20.9251 42.0938 21.3608 42.0938 21.3608Z" stroke="#AEAEAE"/>
</svg>
