<svg width="50" height="50" viewBox="0 0 50 50" fill="none" xmlns="http://www.w3.org/2000/svg">
<g clip-path="url(#clip0_2806_604)">
<path d="M25.0062 0H24.9938C11.2094 0 0 11.2125 0 25C0 30.4688 1.7625 35.5375 4.75938 39.6531L1.64375 48.9406L11.2531 45.8688C15.2063 48.4875 19.9219 50 25.0062 50C38.7906 50 50 38.7844 50 25C50 11.2156 38.7906 0 25.0062 0Z" fill="#4CAF50"/>
<path d="M39.5527 35.3023C38.9496 37.0055 36.5559 38.418 34.6465 38.8305C33.3402 39.1086 31.634 39.3305 25.8902 36.9492C18.5434 33.9055 13.8121 26.4398 13.4434 25.9555C13.0902 25.4711 10.4746 22.0023 10.4746 18.4148C10.4746 14.8273 12.2965 13.0805 13.0309 12.3305C13.634 11.7148 14.6309 11.4336 15.5871 11.4336C15.8965 11.4336 16.1746 11.4492 16.4246 11.4617C17.159 11.493 17.5277 11.5367 18.0121 12.6961C18.6152 14.1492 20.084 17.7367 20.259 18.1055C20.4371 18.4742 20.6152 18.9742 20.3652 19.4586C20.1309 19.9586 19.9246 20.1805 19.5559 20.6055C19.1871 21.0305 18.8371 21.3555 18.4684 21.8117C18.1309 22.2086 17.7496 22.6336 18.1746 23.368C18.5996 24.0867 20.0684 26.4836 22.2309 28.4086C25.0215 30.893 27.284 31.6867 28.0934 32.0242C28.6965 32.2742 29.4152 32.2148 29.8559 31.7461C30.4152 31.143 31.1059 30.143 31.809 29.1586C32.309 28.4523 32.9402 28.3648 33.6027 28.6148C34.2777 28.8492 37.8496 30.6148 38.584 30.9805C39.3184 31.3492 39.8027 31.5242 39.9809 31.8336C40.1559 32.143 40.1559 33.5961 39.5527 35.3023Z" fill="#FAFAFA"/>
</g>
<defs>
<clipPath id="clip0_2806_604">
<rect width="50" height="50" fill="white"/>
</clipPath>
</defs>
</svg>
